<svg width="21" height="20" viewBox="0 0 21 20" fill="none" xmlns="http://www.w3.org/2000/svg">
<path d="M1.97656 18.3678L3.16584 14.0256C2.43112 12.7518 2.04519 11.3068 2.04697 9.83631C2.04891 5.21592 5.80893 1.45703 10.4294 1.45703C12.6716 1.45817 14.7762 2.33073 16.359 3.91465C17.9417 5.49857 18.8126 7.60393 18.8118 9.84304C18.8097 14.4631 15.0492 18.2227 10.4293 18.2227H10.4257C9.02291 18.2221 7.64451 17.8702 6.42015 17.2026L1.97656 18.3678Z" fill="white"/>
<path d="M10.4327 2.87502C6.58961 2.87502 3.46426 5.99922 3.4629 9.83934C3.46101 11.1506 3.83027 12.4357 4.528 13.5459L4.69376 13.8094L3.98981 16.3794L6.62675 15.688L6.88137 15.8388C7.9508 16.4735 9.17699 16.8091 10.4274 16.8098H10.4301C14.2702 16.8098 17.3955 13.6853 17.397 9.84492C17.3999 8.92959 17.2212 8.02277 16.8713 7.17697C16.5213 6.33118 16.0071 5.56319 15.3583 4.91749C14.7131 4.26826 13.9456 3.75344 13.1001 3.40285C12.2546 3.05226 11.348 2.87285 10.4327 2.87502Z" fill="url(#paint0_linear_5095_20182)"/>
<path fill-rule="evenodd" clip-rule="evenodd" d="M8.33527 6.33548C8.17828 5.98675 8.01309 5.97969 7.86396 5.97365L7.46248 5.96875C7.32281 5.96875 7.09587 6.02116 6.90401 6.23078C6.71216 6.44041 6.1709 6.94704 6.1709 7.9775C6.1709 9.00796 6.92145 10.0037 7.02603 10.1436C7.13061 10.2835 8.47494 12.4655 10.6039 13.305C12.373 14.0027 12.7331 13.864 13.1172 13.8291C13.5014 13.7942 14.3564 13.3225 14.5308 12.8334C14.7052 12.3443 14.7053 11.9253 14.6531 11.8377C14.6008 11.7501 14.4611 11.698 14.2515 11.5932C14.0418 11.4884 13.0123 10.9817 12.8203 10.9118C12.6284 10.8418 12.4888 10.8071 12.349 11.0167C12.2092 11.2263 11.8083 11.6979 11.6861 11.8377C11.5638 11.9775 11.4418 11.995 11.2322 11.8903C11.0226 11.7856 10.3481 11.5644 9.5479 10.8508C8.9253 10.2957 8.50502 9.61006 8.38266 9.40055C8.26031 9.19104 8.36968 9.07757 8.47472 8.97322C8.56871 8.87934 8.68411 8.72862 8.78904 8.60637C8.89397 8.48413 8.92849 8.39675 8.99821 8.25719C9.06793 8.11763 9.03318 7.99504 8.98078 7.89035C8.92837 7.78565 8.52143 6.74972 8.33527 6.33548Z" fill="white"/>
<defs>
<linearGradient id="paint0_linear_5095_20182" x1="10.2881" y1="3.71124" x2="10.3587" y2="15.6194" gradientUnits="userSpaceOnUse">
<stop stop-color="#57D163"/>
<stop offset="1" stop-color="#23B33A"/>
</linearGradient>
</defs>
</svg>
